<svg id="Capa_1" data-name="Capa 1" xmlns="http://www.w3.org/2000/svg" viewBox="0 0 522.6 58"><defs><style>.cls-1{fill:#fff;}</style></defs><path id="path0_fill" data-name="path0 fill" class="cls-1" d="M0,52.5H6.3V6.8H0V2.4H44.2V15.3H39.7V7.4H19V24.9H31.9V18h4.5V36.9H31.9V30H19V52.1H40.3V44.2h4.5V57.1H0Z"/><path id="path1_fill" data-name="path1 fill" class="cls-1" d="M63.4,52.5h5v4.4H46.8V52.5h5V4.4h-5V0H63.4Z"/><path id="path2_fill" data-name="path2 fill" class="cls-1" d="M136.2,41.3c-1.3,5.6-3.6,9.8-7,12.5s-7.9,4.1-13.5,4.1c-8.3,0-14.9-2.5-19.7-7.6s-7.2-12-7.2-20.7S91.2,14,96,8.9s11.4-7.6,19.7-7.6a37.35,37.35,0,0,1,9.1,1.2,66.64,66.64,0,0,1,10,3.5V19.4h-4.1c-.9-4.6-2.4-8-4.7-10.3a11.91,11.91,0,0,0-8.9-3.4,11.63,11.63,0,0,0-10.7,5.9c-2.3,3.9-3.5,9.9-3.5,18s1.2,14.1,3.5,18,5.9,5.8,10.7,5.8a10.86,10.86,0,0,0,8-3c2.1-2,3.6-5.1,4.5-9.2h6.6Z"/><path id="path3_fill" data-name="path3 fill" class="cls-1" d="M158.4,58c-6.2,0-11-1.8-14.5-5.5s-5.2-8.7-5.2-15,1.7-11.4,5.2-15,8.3-5.4,14.5-5.4,11,1.8,14.5,5.4,5.2,8.6,5.2,15-1.8,11.4-5.3,15S164.5,58,158.4,58Zm0-4.1a5.37,5.37,0,0,0,5.2-3.5q1.5-3.45,1.5-12.9c0-6.2-.5-10.5-1.5-12.8a5.61,5.61,0,0,0-10.4,0c-1,2.3-1.5,6.6-1.5,12.8s.5,10.5,1.5,12.8A5.16,5.16,0,0,0,158.4,53.9Z"/><path id="path4_fill" data-name="path4 fill" class="cls-1" d="M177.6,56.9V52.5h5v-30h-5V18.1h16.6v5.5a13.63,13.63,0,0,1,4.8-5,14,14,0,0,1,6.8-1.5c3.9,0,6.9,1.3,8.9,3.9s3,6.4,3,11.4V52.7h5v4.4H201.8V52.7H206V31.8c0-3.3-.4-5.6-1.1-6.9A4.19,4.19,0,0,0,201,23a5.69,5.69,0,0,0-5.2,2.9c-1.1,1.9-1.6,5-1.6,9.1V52.4h4.2v4.4H177.6Z"/><path id="path5_fill" data-name="path5 fill" class="cls-1" d="M254.9,9.8h-3.7a7.42,7.42,0,0,0-1.5-4.2,4.51,4.51,0,0,0-3.5-1.4,4,4,0,0,0-3.8,2.1c-.8,1.4-1.2,3.7-1.2,6.8v5H250v4.4h-8.8v30h6.7v4.4H224.5V52.5h5v-30h-5.2V18.1h5.2V13.2c0-4.3,1.2-7.6,3.7-9.8S239.3.1,244.1.1a49.33,49.33,0,0,1,5.5.3,43.45,43.45,0,0,1,5.2,1V9.8Z"/><path id="path6_fill" data-name="path6 fill" class="cls-1" d="M269.1,52.5h5v4.4H252.5V52.5h5v-30h-5V18.1h16.6ZM256.3,7.1a7.31,7.31,0,0,1,1.8-5,5.59,5.59,0,0,1,4.5-2,5.86,5.86,0,0,1,4.4,2,7.14,7.14,0,0,1,1.8,5A7.06,7.06,0,0,1,267,12a6,6,0,0,1-8.9,0A7.06,7.06,0,0,1,256.3,7.1Z"/><path id="path7_fill" data-name="path7 fill" class="cls-1" d="M312.6,52.5h5v4.4H301V52a10.39,10.39,0,0,1-4,4.5,12.12,12.12,0,0,1-6.2,1.5,14.05,14.05,0,0,1-11.7-5.5c-2.8-3.7-4.3-8.7-4.3-15s1.4-11.4,4.3-15,6.7-5.4,11.7-5.4a11.86,11.86,0,0,1,6.2,1.5,10.39,10.39,0,0,1,4,4.5V4.4h-5V0h16.7V52.5ZM300.9,39.4V35.6c0-4.5-.5-7.8-1.6-9.8a5.2,5.2,0,0,0-5-3,5.26,5.26,0,0,0-5.1,3.2c-1,2.1-1.5,6-1.5,11.6s.5,9.4,1.5,11.6a5.26,5.26,0,0,0,5.1,3.2,5.2,5.2,0,0,0,5-3C300.4,47.2,300.9,43.9,300.9,39.4Z"/><path id="path8_fill" data-name="path8 fill" class="cls-1" d="M355.1,39.3h-24v.3c0,5,.7,8.6,2,10.9a7.26,7.26,0,0,0,6.6,3.3,8.48,8.48,0,0,0,6.1-2.2,10.44,10.44,0,0,0,3-6.5h5.5c-1,4.4-2.8,7.7-5.6,9.7S342,57.9,337,57.9c-6.1,0-10.7-1.8-13.9-5.3s-4.8-8.6-4.8-15.2c0-6.4,1.6-11.5,5-15.1s7.9-5.4,13.8-5.4,10.2,1.9,13.3,5.7C353.3,26.5,354.9,32,355.1,39.3ZM342.3,35c0-5.1-.4-8.7-1.3-10.8a4.63,4.63,0,0,0-8.7-.1c-.9,2-1.3,5.4-1.3,10.2V35Z"/><path id="path9_fill" data-name="path9 fill" class="cls-1" d="M355.5,56.9V52.5h5v-30h-5V18.1h16.6v5.5a13.63,13.63,0,0,1,4.8-5,14,14,0,0,1,6.8-1.5c3.9,0,6.9,1.3,8.9,3.9s3,6.4,3,11.4V52.7h5v4.4H379.7V52.7h4.2V31.8c0-3.3-.4-5.6-1.1-6.9a4.19,4.19,0,0,0-3.9-1.9,5.69,5.69,0,0,0-5.2,2.9c-1.1,1.9-1.6,5-1.6,9.1V52.4h4.2v4.4H355.5Z"/><path id="path10_fill" data-name="path10 fill" class="cls-1" d="M436.4,44.8q-1.35,6.6-5.1,9.9Q427.4,58,420.8,58c-6.2,0-11.1-1.8-14.5-5.4s-5.1-8.6-5.1-15.1,1.7-11.5,5.1-15.1,8.1-5.4,14-5.4a38.05,38.05,0,0,1,7.4.8,46.81,46.81,0,0,1,7.6,2.3V30.9h-3.7c-.3-3.3-1.2-5.7-2.6-7.3a7.26,7.26,0,0,0-5.8-2.4c-3.2,0-5.6,1.2-6.9,3.7s-2.1,6.7-2.1,12.7.7,10.1,2,12.6a6.83,6.83,0,0,0,6.5,3.8,7.38,7.38,0,0,0,5.6-2.3,11.71,11.71,0,0,0,2.6-6.7h5.5Z"/><path id="path11_fill" data-name="path11 fill" class="cls-1" d="M454.6,52.5h5v4.4H438V52.5h5v-30h-5V18.1h16.6ZM441.8,7.1a7.31,7.31,0,0,1,1.8-5,5.59,5.59,0,0,1,4.5-2,5.86,5.86,0,0,1,4.4,2,7.14,7.14,0,0,1,1.8,5,7.06,7.06,0,0,1-1.8,4.9,6,6,0,0,1-8.9,0A7.56,7.56,0,0,1,441.8,7.1Z"/><path id="path12_fill" data-name="path12 fill" class="cls-1" d="M494.6,33.1V52.5h5v4.4H483V52a14.33,14.33,0,0,1-5.1,4.5,13.43,13.43,0,0,1-6.4,1.5c-3.6,0-6.3-1.1-8.2-3.2s-2.9-5.2-2.9-9.2c0-4.4,1.4-7.6,4.1-9.8s6.9-3.3,12.4-3.3H483V30.2c0-3.1-.7-5.5-2-7s-3.4-2.2-6.2-2.2a8.09,8.09,0,0,0-5.4,1.6c-1.3,1.1-2.1,2.8-2.7,5.2H463V19.4a37.18,37.18,0,0,1,6.5-1.9,40,40,0,0,1,7.1-.6c6.3,0,10.8,1.3,13.7,3.9S494.6,27.5,494.6,33.1ZM483,44.7V36.9h-4.4a6.4,6.4,0,0,0-5,2,8.12,8.12,0,0,0-1.8,5.7c0,2.5.4,4.3,1.3,5.5a4.46,4.46,0,0,0,3.9,1.8,5.23,5.23,0,0,0,4.3-2A7.74,7.74,0,0,0,483,44.7Z"/><path id="path13_fill" data-name="path13 fill" class="cls-1" d="M517.6,52.5h5v4.4H501V52.5h5V4.4h-5V0h16.6Z"/></svg>